<?xml version="1.0" encoding="utf-8"?>
<!-- Generator: Adobe Illustrator 12.0.0, SVG Export Plug-In . SVG Version: 6.00 Build 51448)  -->
<!DOCTYPE svg PUBLIC "-//W3C//DTD SVG 1.0//EN" "http://www.w3.org/TR/2001/REC-SVG-20010904/DTD/svg10.dtd" [
	<!ENTITY ns_svg "http://www.w3.org/2000/svg">
	<!ENTITY ns_xlink "http://www.w3.org/1999/xlink">
]>
<svg  version="1.0" id="Layer_1" xmlns="&ns_svg;" xmlns:xlink="&ns_xlink;" width="720.842" height="288.147"
	 viewBox="0 0 720.842 288.147" overflow="visible" enable-background="new 0 0 720.842 288.147" xml:space="preserve">
<g>
	<path fill="#060606" d="M622.755,130.906c-0.998,0-1.834-0.186-2.509-0.556c-0.674-0.37-1.183-0.861-1.528-1.473
		c-0.344-0.611-0.517-1.282-0.517-2.013c0-0.683,0.119-1.281,0.361-1.797c0.24-0.517,0.599-0.955,1.072-1.316
		c0.475-0.363,1.057-0.656,1.747-0.879c0.598-0.176,1.276-0.329,2.034-0.462c0.755-0.133,1.553-0.258,2.389-0.375
		c0.834-0.117,1.664-0.233,2.489-0.349l-0.949,0.524c0.017-1.057-0.207-1.84-0.667-2.352c-0.461-0.512-1.254-0.768-2.377-0.768
		c-0.708,0-1.354,0.164-1.946,0.494c-0.591,0.328-1.003,0.871-1.235,1.627l-2.434-0.749c0.333-1.155,0.968-2.074,1.905-2.756
		c0.935-0.683,2.18-1.023,3.735-1.023c1.205,0,2.255,0.205,3.149,0.617s1.55,1.063,1.965,1.952c0.218,0.442,0.351,0.908,0.4,1.399
		c0.049,0.489,0.074,1.017,0.074,1.583v8.297h-2.306v-3.081l0.446,0.398c-0.558,1.032-1.266,1.8-2.127,2.302
		C625.069,130.654,624.009,130.906,622.755,130.906 M623.216,128.772c0.74,0,1.375-0.131,1.908-0.394
		c0.533-0.261,0.96-0.596,1.286-1.002c0.324-0.409,0.535-0.833,0.637-1.274c0.141-0.399,0.222-0.848,0.242-1.347
		c0.02-0.499,0.031-0.899,0.031-1.198l0.848,0.313c-0.823,0.125-1.571,0.235-2.245,0.336c-0.673,0.099-1.284,0.197-1.828,0.293
		c-0.544,0.095-1.03,0.211-1.452,0.342c-0.359,0.125-0.677,0.276-0.956,0.451c-0.278,0.173-0.499,0.386-0.659,0.635
		c-0.163,0.25-0.243,0.553-0.243,0.91c0,0.35,0.085,0.673,0.261,0.968c0.175,0.295,0.439,0.53,0.797,0.705
		C622.201,128.684,622.659,128.772,623.216,128.772"/>
	<path fill="#060606" d="M633.159,130.531v-13.474h2.322v3.269l-0.326-0.424c0.167-0.433,0.382-0.829,0.65-1.191
		c0.265-0.363,0.572-0.66,0.924-0.893c0.339-0.249,0.722-0.442,1.139-0.58c0.421-0.137,0.854-0.22,1.293-0.249
		c0.441-0.029,0.866-0.007,1.272,0.068v2.445c-0.44-0.116-0.931-0.15-1.465-0.099c-0.538,0.05-1.03,0.221-1.479,0.512
		c-0.425,0.273-0.76,0.606-1.005,0.998c-0.245,0.39-0.421,0.824-0.531,1.304c-0.106,0.477-0.162,0.983-0.162,1.514v6.8H633.159z"/>
	<path fill="#060606" d="M641.305,119.152 M641.305,117.057h9.208v2.096h-9.208V117.057z M650.513,130.531
		c-0.848,0.167-1.68,0.237-2.495,0.213c-0.814-0.025-1.542-0.184-2.184-0.475c-0.64-0.291-1.124-0.748-1.446-1.372
		c-0.291-0.557-0.448-1.125-0.469-1.703c-0.02-0.578-0.031-1.232-0.031-1.966v-11.914h2.622v11.79c0,0.541,0.004,1.011,0.018,1.41
		c0.013,0.4,0.096,0.737,0.256,1.011c0.299,0.516,0.775,0.809,1.427,0.879c0.655,0.07,1.421,0.044,2.303-0.081V130.531z"/>
	<path fill="#060606" d="M662.141,130.906c-0.998,0-1.834-0.186-2.508-0.556c-0.675-0.37-1.184-0.861-1.529-1.473
		c-0.344-0.611-0.517-1.282-0.517-2.013c0-0.683,0.119-1.281,0.361-1.797c0.24-0.517,0.599-0.955,1.072-1.316
		c0.476-0.363,1.058-0.656,1.747-0.879c0.598-0.176,1.276-0.329,2.034-0.462c0.756-0.133,1.553-0.258,2.39-0.375
		c0.834-0.117,1.663-0.233,2.488-0.349l-0.949,0.524c0.017-1.057-0.206-1.84-0.667-2.352c-0.461-0.512-1.254-0.768-2.376-0.768
		c-0.708,0-1.355,0.164-1.947,0.494c-0.591,0.328-1.002,0.871-1.235,1.627l-2.433-0.749c0.332-1.155,0.967-2.074,1.904-2.756
		c0.936-0.683,2.18-1.023,3.735-1.023c1.205,0,2.255,0.205,3.149,0.617c0.896,0.412,1.549,1.063,1.965,1.952
		c0.219,0.442,0.351,0.908,0.4,1.399c0.049,0.489,0.074,1.017,0.074,1.583v8.297h-2.307v-3.081l0.447,0.398
		c-0.558,1.032-1.266,1.8-2.127,2.302C664.456,130.654,663.395,130.906,662.141,130.906 M662.602,128.772
		c0.74,0,1.376-0.131,1.909-0.394c0.532-0.261,0.96-0.596,1.285-1.002c0.323-0.409,0.535-0.833,0.637-1.274
		c0.141-0.399,0.222-0.848,0.242-1.347s0.032-0.899,0.032-1.198l0.847,0.313c-0.823,0.125-1.571,0.235-2.245,0.336
		c-0.672,0.099-1.284,0.197-1.828,0.293c-0.544,0.095-1.029,0.211-1.452,0.342c-0.359,0.125-0.677,0.276-0.955,0.451
		c-0.278,0.173-0.499,0.386-0.661,0.635c-0.161,0.25-0.242,0.553-0.242,0.91c0,0.35,0.085,0.673,0.261,0.968
		c0.175,0.295,0.44,0.53,0.797,0.705C661.586,128.684,662.044,128.772,662.602,128.772"/>
	<path fill="#060606" d="M672.534,130.531v-13.474h2.333v3.893h0.311v9.581H672.534z M682.002,130.531v-6.624
		c0-0.524-0.043-1.063-0.132-1.616c-0.087-0.554-0.254-1.068-0.499-1.541c-0.244-0.474-0.591-0.857-1.035-1.148
		c-0.445-0.291-1.025-0.436-1.74-0.436c-0.465,0-0.906,0.076-1.322,0.23c-0.416,0.155-0.78,0.402-1.092,0.743
		c-0.313,0.341-0.557,0.79-0.735,1.347c-0.18,0.558-0.27,1.235-0.27,2.034l-1.621-0.611c0-1.223,0.229-2.302,0.686-3.238
		c0.459-0.936,1.115-1.666,1.972-2.19c0.856-0.523,1.893-0.786,3.106-0.786c0.932,0,1.713,0.149,2.345,0.45
		c0.634,0.299,1.146,0.693,1.543,1.178c0.393,0.486,0.695,1.018,0.902,1.592c0.209,0.573,0.352,1.135,0.425,1.683
		c0.074,0.55,0.113,1.032,0.113,1.448v7.485H682.002z"/>
	<path fill="#060606" d="M693.082,130.906c-1.256,0-2.34-0.312-3.251-0.937c-0.91-0.624-1.613-1.473-2.107-2.55
		c-0.495-1.077-0.742-2.289-0.742-3.637c0-1.355,0.25-2.568,0.749-3.637s1.207-1.913,2.126-2.532c0.92-0.62,2.01-0.93,3.275-0.93
		c1.272,0,2.343,0.31,3.212,0.93c0.87,0.619,1.526,1.465,1.972,2.538c0.444,1.072,0.668,2.283,0.668,3.631
		c0,1.348-0.226,2.557-0.675,3.631c-0.449,1.073-1.11,1.923-1.982,2.551C695.452,130.593,694.37,130.906,693.082,130.906
		 M693.444,128.547c0.856,0,1.555-0.204,2.095-0.612c0.542-0.407,0.936-0.968,1.186-1.683c0.249-0.716,0.375-1.539,0.375-2.471
		c0-0.932-0.128-1.755-0.381-2.471c-0.254-0.715-0.645-1.272-1.173-1.671c-0.528-0.4-1.199-0.599-2.014-0.599
		c-0.866,0-1.579,0.212-2.136,0.636c-0.556,0.424-0.972,0.994-1.241,1.709c-0.27,0.715-0.404,1.515-0.404,2.396
		c0,0.891,0.135,1.695,0.404,2.414c0.27,0.72,0.679,1.292,1.223,1.716C691.921,128.334,692.612,128.547,693.444,128.547
		 M697.099,130.531v-9.693h-0.3v-8.272h2.619v17.965H697.099z"/>
	<path fill="#060606" d="M576.929,160.473v-13.475h2.322v3.894h0.299v9.581H576.929z M585.015,160.473l0.012-8.347
		c0-0.98-0.248-1.752-0.742-2.309c-0.494-0.556-1.157-0.835-1.989-0.835c-0.825,0-1.488,0.282-1.99,0.848
		c-0.503,0.566-0.755,1.307-0.755,2.221l-1.248-0.799c0-0.881,0.212-1.668,0.638-2.356c0.422-0.691,0.997-1.235,1.721-1.635
		c0.724-0.398,1.542-0.6,2.457-0.6c0.956,0,1.771,0.203,2.445,0.605c0.675,0.403,1.188,0.968,1.54,1.69
		c0.355,0.724,0.53,1.564,0.53,2.521l-0.011,8.995H585.015z M593.087,160.473l0.011-8.396c0-0.974-0.249-1.732-0.748-2.277
		c-0.499-0.546-1.155-0.817-1.972-0.817c-0.499,0-0.953,0.115-1.367,0.343c-0.411,0.229-0.744,0.57-0.998,1.023
		c-0.251,0.454-0.38,1.021-0.38,1.702l-1.258-0.637c-0.018-0.946,0.184-1.778,0.604-2.495c0.422-0.715,0.992-1.27,1.716-1.666
		c0.725-0.394,1.536-0.592,2.433-0.592c1.457,0,2.583,0.438,3.38,1.312c0.799,0.873,1.199,2.033,1.199,3.479l-0.012,9.021H593.087z"
		/>
	<path fill="#060606" d="M604.763,160.848c-1.34,0-2.513-0.294-3.524-0.881c-1.01-0.585-1.796-1.404-2.358-2.457
		c-0.56-1.053-0.841-2.272-0.841-3.661c0-1.473,0.276-2.749,0.83-3.831c0.552-1.081,1.323-1.917,2.313-2.507
		c0.991-0.591,2.143-0.887,3.457-0.887c1.371,0,2.54,0.318,3.505,0.954c0.965,0.637,1.687,1.541,2.164,2.713
		c0.479,1.175,0.668,2.567,0.569,4.182h-2.607v-0.949c-0.018-1.563-0.314-2.72-0.893-3.469c-0.578-0.748-1.459-1.122-2.639-1.122
		c-1.307,0-2.286,0.412-2.945,1.233c-0.656,0.825-0.984,2.015-0.984,3.57c0,1.479,0.328,2.625,0.984,3.437
		c0.659,0.812,1.605,1.217,2.846,1.217c0.814,0,1.521-0.186,2.113-0.557c0.596-0.369,1.059-0.899,1.392-1.591l2.559,0.813
		c-0.524,1.206-1.318,2.14-2.383,2.802C607.253,160.517,606.069,160.848,604.763,160.848 M599.959,152.438h9.621v2.035h-9.621
		V152.438z"/>
	<path fill="#060606" d="M619.024,160.848c-1.254,0-2.338-0.313-3.251-0.938c-0.91-0.624-1.611-1.473-2.107-2.55
		c-0.495-1.077-0.742-2.289-0.742-3.637c0-1.355,0.249-2.568,0.748-3.638c0.499-1.068,1.21-1.912,2.129-2.532
		c0.917-0.619,2.01-0.93,3.272-0.93c1.275,0,2.346,0.311,3.215,0.93c0.868,0.62,1.526,1.466,1.972,2.539
		c0.442,1.071,0.666,2.282,0.666,3.631c0,1.348-0.224,2.557-0.673,3.631c-0.449,1.073-1.11,1.923-1.984,2.551
		C621.395,160.535,620.314,160.848,619.024,160.848 M619.386,158.49c0.855,0,1.555-0.204,2.097-0.612
		c0.539-0.406,0.936-0.968,1.186-1.683c0.249-0.716,0.373-1.539,0.373-2.471c0-0.933-0.126-1.755-0.381-2.472
		c-0.254-0.715-0.645-1.271-1.173-1.671s-1.197-0.599-2.014-0.599c-0.866,0-1.577,0.212-2.134,0.636
		c-0.558,0.424-0.972,0.994-1.241,1.709c-0.272,0.715-0.407,1.516-0.407,2.396c0,0.891,0.135,1.694,0.407,2.414
		c0.27,0.72,0.677,1.292,1.223,1.716C617.866,158.277,618.554,158.49,619.386,158.49 M623.042,160.473v-9.693h-0.3v-8.272h2.621
		v17.965H623.042z"/>
	<path fill="#060606" d="M629.107,142.258h2.606v2.532h-2.606V142.258z M629.107,146.999h2.606v13.475h-2.606V146.999z"/>
	<path fill="#060606" d="M633.957,149.095 M633.957,146.999h9.208v2.097h-9.208V146.999z M643.165,160.473
		c-0.848,0.167-1.679,0.236-2.496,0.213c-0.813-0.025-1.542-0.185-2.182-0.476c-0.642-0.291-1.124-0.748-1.448-1.371
		c-0.29-0.558-0.447-1.125-0.467-1.703c-0.021-0.578-0.032-1.232-0.032-1.967v-11.914h2.621v11.789c0,0.542,0.004,1.013,0.018,1.411
		c0.015,0.399,0.098,0.737,0.258,1.012c0.298,0.516,0.774,0.809,1.427,0.879c0.653,0.069,1.421,0.044,2.302-0.081V160.473z"/>
	<path fill="#060606" d="M649.802,160.848c-0.998,0-1.834-0.186-2.508-0.556c-0.673-0.37-1.183-0.861-1.527-1.474
		c-0.346-0.61-0.519-1.281-0.519-2.013c0-0.683,0.121-1.281,0.361-1.797c0.24-0.518,0.601-0.955,1.074-1.316
		c0.474-0.362,1.056-0.655,1.747-0.879c0.599-0.176,1.274-0.329,2.032-0.462s1.553-0.258,2.39-0.375
		c0.836-0.117,1.665-0.232,2.488-0.35l-0.949,0.524c0.019-1.057-0.204-1.84-0.665-2.352c-0.463-0.512-1.254-0.769-2.378-0.769
		c-0.706,0-1.355,0.164-1.947,0.494c-0.589,0.328-1,0.871-1.233,1.627l-2.432-0.749c0.332-1.154,0.966-2.073,1.901-2.756
		s2.18-1.022,3.735-1.022c1.208,0,2.258,0.205,3.151,0.616c0.894,0.412,1.55,1.063,1.966,1.952c0.216,0.442,0.348,0.908,0.397,1.398
		c0.051,0.49,0.076,1.018,0.076,1.584v8.297h-2.308v-3.082l0.448,0.399c-0.557,1.031-1.268,1.8-2.126,2.302
		C652.118,160.596,651.059,160.848,649.802,160.848 M650.263,158.714c0.742,0,1.378-0.132,1.911-0.395
		c0.53-0.261,0.96-0.596,1.283-1.002c0.327-0.408,0.537-0.833,0.637-1.273c0.141-0.399,0.222-0.849,0.242-1.348
		c0.022-0.499,0.032-0.898,0.032-1.197l0.85,0.313c-0.826,0.125-1.574,0.235-2.246,0.336c-0.674,0.1-1.284,0.197-1.828,0.293
		c-0.546,0.096-1.028,0.211-1.454,0.342c-0.357,0.125-0.677,0.276-0.953,0.451c-0.28,0.173-0.498,0.387-0.662,0.636
		c-0.162,0.25-0.243,0.553-0.243,0.909c0,0.351,0.087,0.674,0.263,0.969c0.173,0.295,0.44,0.529,0.798,0.705
		C649.25,158.626,649.706,158.714,650.263,158.714"/>
	<path fill="#060606" d="M658.708,149.095 M658.708,146.999h9.208v2.097h-9.208V146.999z M667.917,160.473
		c-0.848,0.167-1.68,0.236-2.495,0.213c-0.814-0.025-1.542-0.185-2.184-0.476c-0.64-0.291-1.124-0.748-1.446-1.371
		c-0.291-0.558-0.448-1.125-0.469-1.703c-0.02-0.578-0.031-1.232-0.031-1.967v-11.914h2.621v11.789c0,0.542,0.005,1.013,0.019,1.411
		c0.013,0.399,0.096,0.737,0.256,1.012c0.299,0.516,0.775,0.809,1.427,0.879c0.655,0.069,1.421,0.044,2.303-0.081V160.473z"/>
	<path fill="#060606" d="M670.999,142.258h2.607v2.532h-2.607V142.258z M670.999,146.999h2.607v13.475h-2.607V146.999z"/>
	<path fill="#060606" d="M683.2,160.848c-1.346,0-2.515-0.304-3.504-0.911c-0.992-0.607-1.754-1.445-2.291-2.514
		c-0.535-1.069-0.805-2.303-0.805-3.699c0-1.406,0.273-2.645,0.824-3.711c0.55-1.069,1.317-1.901,2.308-2.497
		c0.991-0.594,2.146-0.892,3.468-0.892c1.349,0,2.516,0.304,3.507,0.911c0.989,0.606,1.753,1.443,2.295,2.507
		c0.542,1.066,0.813,2.291,0.813,3.682c0,1.405-0.273,2.643-0.819,3.711c-0.544,1.069-1.31,1.905-2.301,2.508
		C685.704,160.546,684.54,160.848,683.2,160.848 M683.2,158.39c1.291,0,2.252-0.436,2.889-1.305
		c0.637-0.868,0.955-1.989,0.955-3.361c0-1.406-0.322-2.531-0.967-3.375c-0.645-0.845-1.604-1.267-2.877-1.267
		c-0.872,0-1.591,0.197-2.158,0.593c-0.565,0.395-0.984,0.939-1.259,1.635c-0.276,0.694-0.413,1.499-0.413,2.414
		c0,1.414,0.326,2.545,0.973,3.394C680.992,157.966,681.946,158.39,683.2,158.39"/>
	<path fill="#060606" d="M692.544,160.473v-13.475h2.334v3.894h0.312v9.581H692.544z M702.015,160.473v-6.624
		c0-0.524-0.045-1.063-0.133-1.616c-0.085-0.554-0.252-1.068-0.499-1.541c-0.245-0.474-0.589-0.857-1.034-1.148
		s-1.024-0.436-1.74-0.436c-0.468,0-0.907,0.076-1.323,0.229c-0.416,0.155-0.78,0.402-1.091,0.743
		c-0.312,0.341-0.557,0.79-0.736,1.348c-0.179,0.557-0.269,1.234-0.269,2.033l-1.623-0.61c0-1.225,0.229-2.302,0.688-3.238
		c0.456-0.936,1.113-1.666,1.969-2.189c0.859-0.524,1.894-0.786,3.107-0.786c0.933,0,1.715,0.148,2.347,0.449
		c0.631,0.3,1.146,0.693,1.54,1.179c0.395,0.485,0.696,1.017,0.905,1.592c0.207,0.573,0.349,1.135,0.423,1.683
		c0.076,0.551,0.112,1.032,0.112,1.448v7.485H702.015z"/>
	<path fill="#060606" d="M268.981,249.08L198.374,209c1.953-5.502,3.943-10.993,5.969-16.474c0.438-1.175,0.895-2.344,1.335-3.518
		c10.182-1.166,20.394-3.393,30.022-7.1c13.032-4.856,25.242-11.908,36.118-20.69c10.814-8.838,20.371-19.498,27.199-32.098
		c6.763-12.462,10.831-27.498,7.911-42.509c-1.44-7.411-4.529-14.579-8.984-20.632c-4.396-6.109-9.949-11.186-15.941-15.3
		c-6.547-4.499-13.556-7.928-20.76-10.665c3.292-10.169,6.342-20.48,8.918-31.085c0.021-0.091,0.048-0.21,0.066-0.302
		c0.775-3.914-1.77-7.714-5.683-8.488c-3.913-0.775-7.715,1.77-8.488,5.684l-0.033,0.161c-1.973,9.971-4.475,19.974-7.243,29.973
		c-1.985-0.548-3.974-1.069-5.962-1.547c-13.604-3.155-27.392-4.896-41.296-5.292c-27.797-0.732-55.638,4.129-81.69,13.558
		c-26.043,9.466-50.551,23.156-71.949,40.853c-10.683,8.862-20.686,18.63-29.395,29.721c-4.347,5.549-8.364,11.44-11.761,17.889
		c-3.303,6.481-6.315,13.456-6.726,22.06c-0.026,4.351,0.573,8.328,2.252,12.543c1.632,4.13,4.547,7.977,8.072,10.659
		c7.176,5.41,15.253,6.787,22.559,7.273c7.407,0.403,14.531-0.281,21.487-1.416c6.998-1.181,13.642-2.735,20.558-4.925
		c3.049-0.968,4.803-4.197,3.917-7.295c-0.902-3.152-4.189-4.977-7.343-4.075l-0.24,0.069c-12.111,3.463-25.442,5.848-37.542,5.027
		c-5.997-0.435-11.754-1.957-15.337-4.886c-1.795-1.45-3.051-3.191-3.865-5.337c-0.822-2.048-1.2-4.864-1.122-7.235
		c0.228-4.921,2.42-10.767,5.305-16.159c2.911-5.452,6.524-10.725,10.511-15.744c7.987-10.059,17.404-19.176,27.488-27.436
		c40.432-32.93,92.258-52.992,144.536-51.914c13.018,0.154,26.111,1.605,38.783,4.335c1.774,0.392,3.54,0.822,5.299,1.274
		c-1.947,6.582-3.941,13.16-5.979,19.715c-6.437,20.513-13.36,40.938-20.26,61.381c-6.011,17.791-12.052,35.591-17.931,53.461
		c-2.164,0.279-4.322,0.582-6.514,0.775c-13.214,1.229-26.67,1.533-39.98,1.187l-0.008-0.001c-0.91-0.045-1.83,0.408-2.313,1.252
		c-0.686,1.197-0.271,2.723,0.925,3.408l38.657,22.48c-0.998,3.3-2.011,6.596-2.97,9.91c-2.836,10.476-5.852,20.893-7.235,31.874
		c-0.113,0.905,0.507,1.75,1.415,1.904c0.933,0.157,1.819-0.473,1.977-1.404l0.011-0.075c1.76-10.405,5.183-20.673,8.425-30.88
		c0.97-2.889,1.993-5.763,2.996-8.643l69.279,40.29l0.029,0.017c1.526,0.867,3.467,0.331,4.333-1.196
		C271.043,251.888,270.508,249.948,268.981,249.08 M227.483,132.096c7.767-20.147,15.567-40.296,22.93-60.679
		c2.345-6.564,4.652-13.145,6.915-19.751c6.381,2.337,12.464,5.224,17.961,8.889c10.323,6.76,18.226,16.611,20.561,28.271
		c2.444,11.622-0.331,24.276-6.033,35.485c-11.641,22.608-33.16,40.095-57.107,49.987c-7.752,3.325-15.831,5.525-24.122,7.043
		C214.804,164.909,221.146,148.513,227.483,132.096 M164.925,190.013c10.052,0.391,20.096,0.383,30.206-0.153
		c1.216-0.058,2.439-0.146,3.66-0.23c-0.095,0.29-0.194,0.576-0.288,0.866c-1.688,5.241-3.351,10.49-4.977,15.752L164.925,190.013z"
		/>
	<path fill="#060606" d="M277.056,195.927c-2.348-0.499-4.656,1-5.156,3.348c-2.094,9.849-3.131,19.383-4.114,29.085
		c-0.121,1.18,0.649,2.297,1.835,2.58c1.291,0.307,2.587-0.49,2.894-1.782l0.012-0.047c2.206-9.265,4.574-18.709,7.69-27.392
		l0.035-0.097c0.061-0.174,0.112-0.354,0.152-0.54C280.903,198.735,279.404,196.426,277.056,195.927"/>
	<path fill="#060606" d="M281.201,176.134c-2.419-0.092-4.454,1.796-4.545,4.215l-0.012,0.285l-0.229,6.097l-0.022,0.533
		c-0.059,1.573,0.95,3.047,2.53,3.51c1.867,0.548,3.824-0.521,4.372-2.388l1.946-6.639c0.096-0.335,0.161-0.706,0.175-1.068
		C285.507,178.26,283.62,176.225,281.201,176.134"/>
	<path fill="#060606" d="M348.872,197.799c-2.794-2.058-6.696-2.238-9.455-1.459l-1.613,0.454c-1.52,0.432-2.609,1.769-2.782,3.371
		c-0.408-0.18-0.844-0.325-1.329-0.396c-1.641-0.257-3.186,0.421-3.916,1.004c-1.665,1.247-2.298,2.447-2.947,3.603
		c-1.212,2.309-1.781,4.606-2.091,6.95c-0.287,2.478-0.317,5.123,0.229,7.717c-1.111,1.314-2.309,2.546-3.606,3.627
		c-1.472,1.142-3.044,2.148-4.713,2.725c-0.845,0.298-1.649,0.481-2.192,0.498c-0.598-0.073-0.262-0.063-0.383-0.199
		c-0.33-0.569-0.243-2.739,0.109-4.561l1.294-6.003c0.439-2.089,0.854-4.261,0.988-6.697c0.079-2.375,0.031-5.329-2.149-8.444
		c-1.159-1.489-2.658-2.681-4.762-3.324c-2.161-0.665-4.639-0.12-6.142,0.719c-3.029,1.68-4.427,3.769-5.754,5.682
		c-0.215-1.763-1.464-3.293-3.291-3.735c-2.355-0.572-4.728,0.875-5.298,3.23l-0.021,0.089c-1.102,4.55-1.63,8.796-2.157,13.081
		c-0.202,2.146-0.457,4.273-0.529,6.461c-0.048,1.097-0.104,2.19-0.064,3.374c0.022,0.599,0.053,1.2,0.182,1.963
		c0.113,0.441,0.079,0.731,0.553,1.648c0.243,0.334,0.734,1.436,2.555,1.661c0.632,0.049,1.333-0.167,1.764-0.414
		c0.281-0.175,0.555-0.394,0.792-0.636c0.57-0.655,0.672-0.922,0.856-1.226l0.436-0.829l0.705-1.501l1.31-2.864
		c0.858-1.884,1.779-3.714,2.743-5.5c1.906-3.551,3.945-7.078,6.228-9.852c1.032-1.395,2.341-2.535,2.933-2.831
		c0.046,0.027,0.094,0.05,0.13,0.09c0.349,0.232,0.861,1.635,1.042,3.338c0.216,1.705,0.207,3.663,0.136,5.678l-0.216,6.32
		c0.065,2.234-0.332,4.443,1.216,7.632c0.408,0.779,1.253,1.578,2.167,2.027c0.933,0.446,1.835,0.538,2.63,0.556
		c1.531-0.043,2.742-0.425,3.848-0.806c2.233-0.82,4.26-1.949,6.11-3.267c0.995-0.695,1.936-1.446,2.842-2.232
		c0.196,0.294,0.372,0.594,0.595,0.881c1.651,2.138,4.204,3.542,6.664,4.141c2.473,0.554,4.886,0.667,7.443,0.07
		c0.213-0.046,0.411-0.129,0.62-0.187c-0.322,4.15-0.867,8.307-1.639,12.413c-1.328,7.007-3.26,13.927-5.994,20.417
		c-2.765,6.404-6.305,12.685-11.328,16.726c-2.5,1.988-5.361,3.23-8.371,3.354c-2.878,0.162-6.426-0.963-9.59-2.095
		c-6.296-2.32-11.821-7.255-11.813-13.66c-0.139-6.37,4.69-12.432,10.561-16.107c5.946-3.811,13.023-5.899,20.202-6.87
		c0.461-0.063,0.818-0.475,0.788-0.947c-0.031-0.496-0.457-0.873-0.952-0.843c-7.434,0.456-14.986,2.107-21.698,5.925
		c-3.339,1.894-6.471,4.329-8.933,7.483c-2.466,3.098-4.291,7.036-4.413,11.313c-0.213,4.279,1.577,8.565,4.315,11.693
		c2.726,3.204,6.276,5.353,9.88,6.962c1.813,0.806,3.676,1.455,5.555,1.972c1.788,0.579,4.079,1.012,6.214,0.984
		c4.393,0.022,8.674-1.695,12.01-4.155c6.736-5.02,10.785-11.986,13.981-18.924c3.153-7.016,5.372-14.316,6.969-21.735
		c1.389-6.539,2.281-13.181,2.534-19.947c0.836-1.181,1.533-2.435,2.033-3.714c1.851-4.572,2.307-9.528,0.94-14.639
		C353.033,202.529,351.688,199.777,348.872,197.799 M340.595,224.275c-1.454,0.424-3.303,0.495-4.857,0.135
		c-1.533-0.387-2.82-1.102-3.65-2.316c-0.352-0.482-0.596-1.063-0.821-1.652c0.886-1.041,1.739-2.109,2.527-3.232
		c1.295-1.838,2.433-3.813,3.296-6.035c0.429-1.121,0.809-2.295,1.036-3.662c0.073-0.905,0.242-1.908,0.001-3.155
		c0.278,0.056,0.541,0.155,0.836,0.149c0.118-0.002,0.884,0.574,1.454,1.79c0.592,1.166,1.074,2.661,1.427,4.233
		c0.707,3.172,0.98,6.656,1.055,10.142c0.012,0.813-0.025,1.631-0.035,2.447C342.178,223.619,341.433,224.031,340.595,224.275"/>
	<path fill="#060606" d="M393.218,163.414c-7.992-3.846-14.96-9.697-19.895-17.008c-4.982-7.271-8.031-15.822-9.039-24.611
		c-2.043-17.694,4.347-35.839,16.094-49.248c5.795-6.754,12.952-12.668,20.551-16.561c3.882-1.871,7.946-3.208,12.095-3.993
		c4.172-0.633,8.394-0.681,12.532-0.076c16.651,2.474,30.84,16.473,33.909,32.98c1.702,8.195,0.783,16.817-2.242,24.735
		c-3.094,7.923-8.093,15.197-14.271,21.499c-0.02,0.018-0.065,0.065-0.082,0.085c-2.398,2.533-2.289,6.531,0.244,8.929
		c2.534,2.399,6.531,2.29,8.93-0.245c7-7.393,12.91-16.166,16.557-26.059c3.591-9.879,4.604-20.954,2.234-31.378
		c-4.376-20.992-22.428-38.229-43.757-41.059c-5.289-0.686-10.66-0.527-15.883,0.382c-5.192,1.056-10.184,2.816-14.834,5.17
		c-4.549,2.459-8.924,5.377-12.69,8.67c-3.851,3.227-7.435,6.801-10.64,10.7c-6.52,7.706-11.493,16.76-14.584,26.412
		c-2.997,9.68-4.092,20.008-2.754,30.108c1.328,10.081,5.011,19.907,10.938,28.244c5.87,8.379,14.096,15.039,23.307,19.271
		l6.438,2.898c2.023,0.981,3.978,2.068,5.869,3.241c3.756,2.375,7.158,5.219,9.938,8.527c5.683,6.538,8.263,15.309,6.999,23.886
		c-1.178,8.593-5.812,16.729-12.284,22.82c-3.216,3.047-6.958,5.72-10.905,7.506c-3.933,1.798-8.167,2.6-11.951,1.593
		c-3.746-1.062-6.906-3.91-8.905-7.646c-2.028-3.722-3.037-8.11-3.204-12.513c-0.309-8.802,2.854-17.918,9.305-23.802
		c0.979-0.893,1.074-2.422,0.191-3.411c-0.888-0.997-2.418-1.084-3.414-0.194c-7.803,6.96-11.504,17.438-11.293,27.556
		c0.132,5.088,1.193,10.234,3.658,14.926c2.39,4.659,6.662,8.864,12.14,10.465c5.501,1.543,11.129,0.379,15.819-1.69
		c4.743-2.097,8.883-4.985,12.648-8.379c7.467-6.774,13.051-15.956,14.693-26.254c1.781-10.25-1.279-21.42-7.985-29.386
		C411.262,172.366,401.78,167.096,393.218,163.414"/>
	<path fill="#060606" d="M482.349,182.258l0.058-0.017c0.148-0.041,0.296-0.09,0.441-0.149c2.226-0.891,3.309-3.417,2.418-5.645
		c-0.891-2.226-3.417-3.309-5.644-2.419c-3.743,1.498-7.421,3.042-11.085,4.604c1.942-5.082,3.891-10.16,5.812-15.253
		c5.738-15.203,11.387-30.455,16.714-45.869c5.292-15.438,10.375-30.958,14.229-47.179c0.016-0.069,0.036-0.162,0.05-0.232
		c0.645-3.28-1.493-6.464-4.774-7.109c-3.28-0.645-6.463,1.493-7.108,4.774l-0.02,0.098c-3.047,15.499-7.453,31.06-12.092,46.504
		c-4.675,15.457-9.706,30.854-14.834,46.227c-2.465,7.394-4.963,14.782-7.472,22.168c-1.313,0.579-2.631,1.142-3.944,1.727
		c-8.084,3.616-16.115,7.326-24.097,11.125c-0.667,0.32-1.006,1.101-0.756,1.814c0.267,0.768,1.105,1.172,1.874,0.903
		c8.112-2.833,16.255-5.567,24.418-8.209c-7.112,20.876-14.282,41.751-21.14,62.748c-0.37,1.15,0.227,2.406,1.37,2.826
		c1.173,0.433,2.473-0.169,2.905-1.342c8.287-22.386,16.951-44.646,25.523-66.968C470.923,185.598,476.655,183.848,482.349,182.258"
		/>
	<path fill="#060606" d="M502.598,201.567c0.933-0.59,1.209-1.823,0.618-2.755c-1.29-2.038-4.059-3.587-6.92-3.41
		c-2.843,0.131-5.16,1.452-7.043,2.773c-3.279,2.416-5.619,5.311-7.738,8.268c0.72-2.251,1.462-4.487,2.266-6.676l0.018-0.051
		c0.056-0.149,0.104-0.304,0.142-0.463c0.568-2.33-0.858-4.68-3.188-5.249c-2.33-0.568-4.681,0.859-5.249,3.189
		c-2.709,11.095-4.199,22.024-5.435,33.107l-0.029,0.256c-0.129,1.155,0.574,2.277,1.727,2.636c1.304,0.405,2.689-0.323,3.096-1.628
		l0.001-0.004c3.29-6.936,6.827-13.975,11.099-20.158c2.097-3.072,4.449-6.063,7.085-7.979c1.303-0.977,2.646-1.502,3.767-1.723
		c1.112-0.255,2.293-0.269,4.119,0.095l0.213,0.043C501.628,201.934,502.148,201.852,502.598,201.567"/>
	<path fill="#060606" d="M517.482,202.121c0.622-2.314-0.747-4.696-3.063-5.32s-4.697,0.747-5.32,3.062l-0.088,0.323l-7.952,29.509
		l-0.031,0.114c-0.424,1.588,0.44,3.261,2.019,3.815c1.656,0.583,3.471-0.287,4.054-1.944l10.285-29.248
		C517.419,202.333,517.455,202.223,517.482,202.121"/>
	<path fill="#060606" d="M516.434,192.334c2.312,0.634,4.698-0.727,5.333-3.037l1.212-4.423c0.567-2.093-0.565-4.314-2.644-5.045
		c-2.176-0.766-4.561,0.379-5.326,2.556l-0.113,0.323l-1.365,3.883l-0.046,0.13c-0.032,0.092-0.062,0.187-0.088,0.281
		C512.762,189.313,514.123,191.702,516.434,192.334"/>
	<path fill="#060606" d="M690.306,212.064c-26.527-1.969-52.404,2.107-77.634,7.802c-11.607,2.739-23.063,6.058-34.316,9.967
		c0.32-3.662,0.461-7.347,0.337-11.047c-0.003-0.093-0.014-0.184-0.018-0.275c0.085-0.087,0.183-0.157,0.265-0.246
		c2.669-2.887,4.883-7.464,3.393-12.408c-0.717-2.392-2.34-4.335-4.042-5.753c-1.756-1.398-3.656-2.324-5.54-3.081
		c-0.887-0.352-1.932-0.334-2.843,0.146c-1.272,0.671-1.923,2.033-1.77,3.381c-0.152-0.288-0.357-0.594-0.701-0.949
		c-0.629-0.7-1.82-1.033-2.331-1.042c-0.566-0.042-1.138,0.047-1.348,0.12c-1.213,0.347-1.643,0.693-2.253,1.086
		c-0.561,0.389-1.026,0.804-1.447,1.23c-1.648,1.718-2.658,3.607-3.346,5.603c-0.66,1.966-1.032,4.145-0.921,6.303
		c-0.04,0.047-0.08,0.111-0.12,0.157c-0.265,0.306-0.39,0.453-0.656,0.686l-0.97,0.813c-1.298,1.01-2.711,2.001-3.909,2.426
		c-0.114,0.047-0.215,0.072-0.312,0.095c-0.018-0.092-0.036-0.195-0.04-0.33c-0.107-1.224,0.172-3.003,0.423-4.766
		c0.227-1.813,0.534-3.692,0.306-6.115c-0.136-1.208-0.41-2.648-1.538-4.232c-1.111-1.645-3.304-2.752-5.107-2.882
		c-1.968-0.211-3.712,0.397-4.939,1.088c-1.258,0.698-2.222,1.494-3.021,2.277c-1.635,1.584-2.758,3.222-3.837,4.829
		c-2.04,3.271-3.663,6.521-5.265,9.711c-0.879,1.751-1.764,3.534-2.688,5.189c0.396-2.909,1.092-5.87,2.031-8.72
		c1.011-3.206,2.368-6.387,4.029-8.939c0.176-0.274,0.348-0.603,0.465-0.921c0.883-2.381-0.333-5.027-2.714-5.908
		c-2.382-0.882-5.026,0.334-5.907,2.714c-2.823,7.621-4.065,14.62-4.869,22.26c-0.098,1.977-0.283,3.779,0.282,6.4
		c0.239,0.711,0.303,1.468,1.438,2.717c0.488,0.545,1.625,1.212,2.623,1.236c0.576,0.061,0.953-0.009,1.317-0.095
		c0.384-0.085,0.78-0.22,0.967-0.328c1.893-1.029,2.355-1.855,3.132-2.685c2.569-3.267,4.285-6.328,6.243-9.355
		c1.889-3.007,3.729-5.987,5.712-8.592c0.946-1.313,1.967-2.543,2.9-3.431c0.492-0.539,0.962-0.812,1.24-0.961
		c0.009,0.024,0.019,0.031,0.027,0.056c0.417,1.085,0.604,2.795,0.762,4.529c0.198,1.787,0.226,3.594,0.707,5.89
		c0.317,1.05,0.582,2.842,2.694,4.018c2.099,0.933,3.584,0.353,4.654,0.02c2.133-0.855,3.69-1.891,5.283-2.94l0.354-0.238
		c0.077,0.124,0.132,0.256,0.214,0.379c1.162,1.857,2.911,3.192,4.683,4.121c1.871,1.03,4.188,1.299,6.211,1.008
		c1.419-0.245,2.739-0.719,4.012-1.284c0.133,3.015,0.146,6.034,0.038,9.066c-11.217,4.082-22.287,8.645-32.75,14.53
		c-5.622,3.242-11.176,6.766-15.853,11.538c-2.247,2.405-4.478,5.235-4.989,8.944c-0.229,1.839,0.254,3.81,1.255,5.339
		c1.001,1.539,2.356,2.68,3.75,3.655c2.857,1.87,5.955,3.038,9.094,4c3.149,0.961,6.45,1.482,9.778,1.515
		c6.694,0.152,13.348-2.692,18.161-7.313c4.822-4.638,8.32-10.44,10.824-16.535c2.524-6.106,4.207-12.514,5.331-19.003
		c0.276-1.623,0.519-3.252,0.723-4.887c11.724-3.715,23.711-6.664,35.714-9.107c12.526-2.493,25.188-4.309,37.88-5.066
		c12.67-0.754,25.41-0.697,37.732,1.203l0.037,0.006c0.108,0.016,0.218,0.028,0.33,0.037c2.389,0.178,4.469-1.616,4.646-4.006
		C694.489,214.32,692.696,212.24,690.306,212.064 M542.61,206.619c-0.02-0.11,0.092,0.035,0.222,0.268
		C542.729,206.804,542.622,206.71,542.61,206.619 M565.254,205.116l-0.007,0.001C565.383,205.055,565.514,205.023,565.254,205.116
		 M568.067,220.792c-1.474,0.25-2.895,0.15-4.132-0.617c-1.361-0.726-2.416-1.818-2.998-3.078c-0.169-0.385-0.223-0.802-0.313-1.209
		c0.349-0.371,0.732-0.742,1.059-1.116c2.471-2.979,4.683-5.669,6.376-9.712c0.198-0.592,0.426-1.083,0.537-2.211
		c0.018-0.269-0.001-0.624-0.047-0.994v0.001c2.421,4.591,3.311,10.899,3.883,16.851
		C571.12,219.728,569.629,220.495,568.067,220.792 M572.359,237.879c-0.59,6.251-1.737,12.477-3.727,18.421
		c-1.996,5.902-4.773,11.699-9.151,16.115c-4.263,4.51-10.321,7.125-16.545,7.05c-6.157-0.08-12.521-2.154-17.649-5.381
		c-2.481-1.689-4.386-4.183-3.933-6.947c0.398-2.748,2.32-5.318,4.461-7.495c4.412-4.374,9.884-7.764,15.427-10.837
		c9.999-5.326,20.489-9.662,31.231-13.328C572.418,236.277,572.433,237.081,572.359,237.879"/>
	<path fill="#060606" d="M718.923,217.012c-0.582-0.311-1.216-0.398-1.86-0.378c-0.651,0.071-1.285,0.026-1.946,0.268
		c-0.558,0.205-1.083,0.563-1.484,1.057c-1.187,1.464-0.962,3.613,0.501,4.8l0.26,0.211c0.501,0.405,1.028,0.526,1.538,0.766
		c0.519,0.186,1.044,0.263,1.623,0.119l0.554-0.138c0.955-0.241,1.808-0.869,2.309-1.808
		C721.356,220.145,720.688,217.952,718.923,217.012"/>
	<path fill="#060606" d="M706.86,214.726c-1.382-0.106-2.721-0.6-4.066-1.192c-0.874-0.381-1.893-0.502-2.893-0.267
		c-2.457,0.578-3.98,3.04-3.401,5.497c0.579,2.458,3.04,3.98,5.497,3.401c1.352-0.312,2.706-0.522,4.019-0.348l0.108,0.014
		c0.063,0.009,0.125,0.016,0.189,0.021c1.967,0.15,3.685-1.321,3.837-3.289C710.301,216.595,708.828,214.876,706.86,214.726"/>
</g>
</svg>
