<?xml version="1.0" encoding="UTF-8"?>
<!DOCTYPE svg PUBLIC "-//W3C//DTD SVG 1.1//EN" "http://www.w3.org/Graphics/SVG/1.1/DTD/svg11.dtd">
<!-- Creator: CorelDRAW -->
<svg xmlns="http://www.w3.org/2000/svg" xml:space="preserve" width="300px" height="143px" style="shape-rendering:geometricPrecision; text-rendering:geometricPrecision; image-rendering:optimizeQuality; fill-rule:evenodd; clip-rule:evenodd"
viewBox="0 0 298.233 142.633"
 xmlns:xlink="http://www.w3.org/1999/xlink">
 <defs>
  <style type="text/css">
   <![CDATA[
    .fil2 {fill:none}
    .fil0 {fill:black}
    .fil1 {fill:black;fill-rule:nonzero}
   ]]>
  </style>
 </defs>
 <g id="Слой_x0020_1">
  <metadata id="CorelCorpID_0Corel-Layer"/>
  <g id="_166136288">
   <g>
    <path id="_137058536" class="fil0" d="M76.3921 5.49903c14.3011,0 27.6103,4.2475 38.741,11.5455 1.40917,-1.52914 3.42794,-2.48744 5.67057,-2.48744 4.2575,0 7.71007,3.45257 7.71007,7.70982 0,4.2575 -3.45257,7.71007 -7.71007,7.71007 -4.04584,0 -7.36454,-3.11851 -7.68422,-7.08242 -7.82419,1.00537 -17.6603,2.3187 -29.7839,4.01756 -6.99464,0.980249 -13.5252,1.81468 -19.543,2.5245 -2.2119,9.01585 -5.01926,20.6023 -8.46476,35.1568 -6.86808,29.0105 -12.9856,50.4791 -16.4626,62.0629 3.24677,0.800779 5.713,3.6674 5.85418,7.17605 0.171421,4.25384 -3.13948,7.84247 -7.39332,8.0139 -4.25409,0.17118 -7.84272,-3.13972 -8.0139,-7.39356 -0.064129,-1.59278 0.359669,-3.09193 1.13875,-4.35381 -10.5406,-9.00463 -18.407,-21.0478 -22.2365,-34.7737 -1.89856,-0.015362 -3.79566,-0.727628 -5.27335,-2.14558 -3.07217,-2.94757 -3.17313,-7.82931 -0.225553,-10.9012 0.870276,-0.907095 1.90905,-1.55499 3.01999,-1.94196 -0.0763207,-1.34504 -0.117044,-2.69934 -0.117044,-4.0634 0,-13.7659 3.93294,-26.6147 10.7364,-37.4838 -1.05901,-1.33602 -1.68447,-3.02975 -1.66496,-4.86686 0.0453552,-4.25725 3.5345,-7.67276 7.79151,-7.62741 1.11558,0.0119502 2.17313,0.26067 3.12607,0.697393 9.4377,-9.72202 21.6396,-16.7464 35.3384,-19.7971 0.253838,-1.49866 0.951472,-2.93733 2.09632,-4.10436 2.98171,-3.03901 7.86418,-3.08583 10.9032,-0.104367 0.756401,0.742259 1.32748,1.60205 1.71251,2.52183 0.244819,-0.00243954 0.488663,-0.00926609 0.734213,-0.00926609zm36.7123 16.366c0.0580331,-1.12972 0.359424,-2.19532 0.85296,-3.14533 -10.4665,-6.40136 -22.7698,-10.0922 -35.9342,-10.0922 -0.591562,0 -1.18166,0.0075602 -1.76957,0.0221915 -0.0387702,1.89539 -0.772005,3.7803 -2.20409,5.23994 -1.8754,1.91173 -4.50305,2.63887 -6.95099,2.17337 -0.795172,3.19337 -1.74567,7.02389 -2.85784,11.5486 17.9039,-2.20434 36.9507,-4.48988 48.8637,-5.74665zm-50.7447 7.73933c-4.30456,0.50061 -8.33552,0.9366 -12.0751,1.31602 -3.26701,4.57059 -6.83516,9.66984 -10.6498,15.2748 -4.57766,6.72616 -8.86564,12.7303 -12.7384,17.9722 0.583758,4.25945 1.25067,9.00585 2.01146,14.2726 3.39722,23.5157 4.47525,40.6691 4.81565,48.7288 0.908071,-0.429163 1.91563,-0.687149 2.9822,-0.730068 0.519873,-0.0209687 1.02999,0.0104859 1.52499,0.0890046 5.26335,-21.7037 17.8849,-73.4906 24.129,-96.9234zm-14.1658 1.52524c-7.32577,0.722996 -13.4457,1.22165 -18.196,1.56084 0.0780296,0.453305 0.116314,0.920021 0.111193,1.39624 -0.0392593,3.6813 -2.65399,6.73275 -6.11339,7.46159 0.534749,4.59083 1.33967,11.097 2.52402,19.8515 7.35113,-10.3758 15.4136,-21.681 21.6742,-30.2702zm-18.3723 0.78176c5.30188,-0.670812 12.0912,-1.52597 19.5996,-2.46257 3.6674,-5.01073 6.60204,-8.91977 8.2314,-10.8964 1.67618,-2.03341 3.23555,-3.8771 4.6574,-5.5267 -0.521093,-0.714703 -0.903925,-1.49988 -1.14874,-2.31773 -12.5667,3.1585 -23.7647,9.76591 -32.5311,18.7554 0.532796,0.729823 0.940259,1.55645 1.19142,2.44794zm21.7062 -2.72519c3.65423,-0.455011 7.45379,-0.926114 11.3197,-1.40283 0.860765,-3.19581 1.57742,-5.75152 2.10753,-7.48817l1.35138 -4.42672c-1.15289,-0.348694 -2.24067,-0.972933 -3.15972,-1.87466 -0.0724198,-0.0709585 -0.143134,-0.143137 -0.212142,-0.216287 -3.09827,4.05437 -6.95123,9.21214 -11.4067,15.4087zm-25.8217 36.5874c-4.98488,6.69446 -9.22311,12.0527 -12.4253,15.9756 0.114119,0.097537 0.226287,0.198489 0.336016,0.30383 3.07193,2.94733 3.17288,7.82906 0.225312,10.9012 -0.774689,0.807363 -1.68325,1.40892 -2.65716,1.80444 3.38966,13.248 10.6169,24.9605 20.4253,33.8866 0.487443,-0.479397 1.03877,-0.895148 1.64106,-1.23263 -1.47281,-11.5265 -5.20093,-40.9544 -7.54523,-61.6391zm-13.1568 15.4221c3.37381,-4.79785 7.91441,-11.2429 12.8439,-18.2051 -0.880762,-7.901 -1.51524,-14.2219 -1.67301,-17.2721l-0.211167 -4.08364c-0.388687,0.0560826 -0.786881,0.0833948 -1.19166,0.0790048 -1.00902,-0.0107304 -1.97049,-0.215312 -2.85028,-0.57742 -6.60936,10.583 -10.4316,23.0849 -10.4316,36.4794 0,0.78054 0.0139006,1.55767 0.0397455,2.33187 1.218,0.125821 2.41331,0.541086 3.47403,1.24799z"/>
    <path id="_165806960" class="fil1" d="M181.576 105.145l-1.07559 1.11217c-0.89222,-0.867836 -1.7642,-1.30383 -2.6157,-1.30383 -0.541817,0 -1.00219,0.179226 -1.38917,0.537916 -0.387222,0.358449 -0.578637,0.778104 -0.578637,1.25482 0,0.419652 0.158985,0.82297 0.476713,1.2058 0.317725,0.387222 0.985856,0.847598 2.00439,1.37308 1.24262,0.643744 2.08607,1.2631 2.53011,1.86198 0.440135,0.603023 0.660081,1.28335 0.660081,2.04121 0,1.06316 -0.374786,1.96781 -1.1246,2.70909 -0.745427,0.737625 -1.68252,1.10827 -2.80298,1.10827 -0.749572,0 -1.46257,-0.162889 -2.14289,-0.488905 -0.680322,-0.326019 -1.24262,-0.778104 -1.69081,-1.34845l1.05121 -1.19386c0.851499,0.961472 1.75591,1.44233 2.70934,1.44233 0.668128,0 1.23848,-0.211897 1.7069,-0.643744 0.468667,-0.427701 0.70495,-0.932943 0.70495,-1.51548 0,-0.476713 -0.154839,-0.904656 -0.464521,-1.2753 -0.313583,-0.36674 -1.01048,-0.831258 -2.10217,-1.38527 -1.16947,-0.606924 -1.96391,-1.2019 -2.38747,-1.79249 -0.419652,-0.586686 -0.631552,-1.25896 -0.631552,-2.01683 0,-0.985859 0.334065,-1.80492 1.00634,-2.45672 0.672276,-0.651793 1.52377,-0.981955 2.55035,-0.981955 1.19386,0 2.39551,0.586686 3.6057,1.75615zm-67.4396 21.2241l0 -3.34187 3.81931 0 2.71763 0 4.71056 0c2.44013,0 4.45623,-0.734455 6.04706,-2.20141 1.59059,-1.46696 2.38698,-3.40356 2.38698,-5.80834 0,-2.22775 -0.680808,-4.10193 -2.04218,-5.62253 -1.36138,-1.5206 -3.28115,-2.28091 -5.75518,-2.28091l-5.34723 0 -2.71763 0 -3.81931 0 0 -3.5011 11.8842 0c3.50061,0 6.29505,1.11461 8.38088,3.34187 2.08583,2.22726 3.12972,4.93319 3.12972,8.11582 0,2.86442 -0.848818,5.27798 -2.54621,7.24067 -1.69739,1.96245 -3.83687,3.19142 -6.41843,3.68642l9.33577 14.7464 -4.19044 0 -9.17678 -14.375 -3.28968 0 -3.28968 0 -3.81931 0zm62.2755 -55.7101l14.5699 0 1.64301 3.29822 -17.7452 0c-2.28554,4.9227 -4.43379,9.5206 -6.75957,14.4267l-4.12314 0 17.6535 -37.3492 3.95781 0c-3.53816,7.47574 -5.71226,12.1312 -9.19629,19.6242zm-86.8703 52.5884l14.5699 0 1.64301 3.29822 -17.7452 0c-2.28554,4.9227 -4.43379,9.5206 -6.75957,14.4267l-4.12314 0 17.6535 -37.3492 3.95781 0c-3.53816,7.47574 -5.71226,12.1312 -9.19629,19.6242zm-9.54109 -49.7588l0 -3.34187 3.81931 0 2.71763 0 4.71056 0c2.44013,0 4.45623,-0.734455 6.04706,-2.20141 1.59059,-1.46696 2.38698,-3.40356 2.38698,-5.80834 0,-2.22775 -0.680808,-4.10193 -2.04218,-5.62253 -1.36138,-1.5206 -3.28115,-2.2809 -5.75518,-2.2809l-5.34723 0 -2.71763 0 -3.81931 0 0 -3.5011 11.8842 0c3.50061,0 6.29505,1.11461 8.38088,3.34187 2.08583,2.22726 3.12972,4.93319 3.12972,8.11582 0,2.86442 -0.848818,5.27798 -2.54621,7.24067 -1.69739,1.96245 -3.83687,3.19141 -6.41843,3.68642l9.33577 14.7464 -4.19044 0 -9.17678 -14.375 -3.28968 0 -3.28968 0 -3.81931 0zm65.1034 33.742l0 -3.6335 20.4999 0 0 3.6335 -8.33357 0 0 33.7418 -3.80687 0 0 -33.7418 -8.35943 0zm124.972 -56.2219l4.31846 0 9.54767 15.4011 9.40014 -15.4011 4.31846 0 -11.8369 19.5116 0 17.8637 -3.68544 0 0 -17.8637 -12.0624 -19.5116zm-25.0912 3.6335l0 -3.6335 20.4999 0 0 3.6335 -8.33357 0 0 33.7418 -3.80688 0 0 -33.7418 -8.35942 0zm-12.4638 -3.6335l3.73738 0 0 37.3753 -3.73738 0 0 -37.3753zm-34.5664 0l4.3704 0 8.94075 14.586 9.01853 -14.586 4.31846 0 -11.1258 18.1153 11.863 19.2599 -4.37064 0 -9.70348 -15.6786 -9.75591 15.6786 -4.3704 0 11.9149 -19.2599 -11.0997 -18.1153zm-55.8593 0l3.76347 0 0 33.7679 14.3519 0 0 3.60741 -18.1153 0 0 -37.3753zm-29.3114 0l21.4192 0 0 3.68544 -17.6818 0 0 11.6896 17.5343 0 0 3.65959 -17.5343 0 0 14.6552 17.5343 0 0 3.68544 -21.2716 0 0 -37.3753zm74.5572 47.8946l1.68691 0 0 4.81956 2.64814 0 0 1.43428 -2.64814 0 0 11.5543 -1.68691 0 0 -11.5543 -2.27725 0 0 -1.43428 2.27725 0 0 -4.81956zm7.96586 4.81956l1.68276 0 0 6.06657c0,1.47891 0.0814414,2.49744 0.240185,3.05559 0.240429,0.794441 0.692756,1.42185 1.36503,1.88637 0.672031,0.460376 1.47476,0.692514 2.4077,0.692514 0.929042,0 1.71934,-0.227993 2.36723,-0.676177 0.647648,-0.448181 1.09583,-1.03901 1.34431,-1.77225 0.167031,-0.501096 0.248476,-1.5645 0.248476,-3.18605l0 -6.06657 1.70714 0 0 6.37625c0,1.78859 -0.207755,3.13704 -0.623261,4.0456 -0.419655,0.90856 -1.04706,1.61741 -1.88637,2.1307 -0.839307,0.513291 -1.89442,0.770058 -3.15752,0.770058 -1.26701,0 -2.32236,-0.256766 -3.16971,-0.770058 -0.847353,-0.513288 -1.47891,-1.23043 -1.89856,-2.14704 -0.41551,-0.920752 -0.627407,-2.30188 -0.627407,-4.14752l0 -6.25798zm29.3918 -5.01122l0 17.9998 -1.65009 0 0 -2.23263c-0.69666,0.851499 -1.48305,1.4911 -2.35479,1.92294 -0.871982,0.427946 -1.82516,0.643747 -2.86003,0.643747 -1.8376,0 -3.406,-0.668131 -4.70982,-2.00049 -1.29968,-1.33211 -1.95148,-2.95367 -1.95148,-4.86442 0,-1.87003 0.655939,-3.4672 1.97196,-4.79541 1.31187,-1.32821 2.89246,-1.99634 4.73811,-1.99634 1.06754,0 2.02902,0.228237 2.89271,0.680564 0.863691,0.45623 1.62156,1.13655 2.27335,2.04097l0 -7.39868 1.65009 0zm-6.68568 6.29066c-0.929042,0 -1.78859,0.227993 -2.57888,0.684468 -0.786395,0.460376 -1.4138,1.09997 -1.87832,1.93099 -0.464521,0.827115 -0.700805,1.703 -0.700805,2.62375 0,0.916848 0.236284,1.79273 0.70495,2.62789 0.472568,0.835162 1.09998,1.48305 1.89442,1.95147 0.79054,0.464521 1.63789,0.696904 2.54645,0.696904 0.916603,0 1.78444,-0.232383 2.60327,-0.692759 0.819066,-0.460376 1.45038,-1.08364 1.89051,-1.87418 0.444036,-0.786147 0.663982,-1.67447 0.663982,-2.66032 0,-1.50329 -0.496951,-2.76225 -1.48695,-3.77274 -0.990004,-1.01024 -2.20824,-1.51548 -3.65862,-1.51548zm12.4067 -6.62472c0.37869,0 0.704706,0.134601 0.977812,0.40746 0.268714,0.268958 0.403315,0.594733 0.403315,0.977809 0,0.374786 -0.134601,0.69666 -0.403315,0.965618 -0.273107,0.272862 -0.599123,0.407463 -0.977812,0.407463 -0.375031,0 -0.69666,-0.134601 -0.969763,-0.407463 -0.268958,-0.268958 -0.403315,-0.590832 -0.403315,-0.965618 0,-0.383077 0.134357,-0.708851 0.403315,-0.977809 0.273104,-0.272859 0.594733,-0.40746 0.969763,-0.40746zm-0.835403 5.34528l1.68276 0 0 12.9885 -1.68276 0 0 -12.9885zm12.643 -0.334065c1.99634,0 3.65057,0.725188 4.96659,2.17557 1.19361,1.32017 1.78834,2.88466 1.78834,4.68959 0,1.81297 -0.631311,3.40185 -1.89027,4.75859 -1.26311,1.35674 -2.88466,2.03292 -4.86467,2.03292 -1.98805,0 -3.61375,-0.676177 -4.87661,-2.03292 -1.26311,-1.35674 -1.89051,-2.94562 -1.89051,-4.75859 0,-1.79688 0.594733,-3.35723 1.78859,-4.67715 1.31187,-1.45867 2.97415,-2.188 4.97854,-2.188zm0 1.63789c-1.38527,0 -2.57474,0.513288 -3.56888,1.54011 -0.994147,1.02658 -1.4911,2.26506 -1.4911,3.72373 0,0.937089 0.224092,1.81297 0.680322,2.62375 0.452329,0.814924 1.0634,1.43819 1.83736,1.88222 0.770055,0.440135 1.61765,0.660081 2.54231,0.660081 0.920752,0 1.76835,-0.219947 2.54231,-0.660081 0.770058,-0.444039 1.38527,-1.0673 1.8376,-1.88222 0.452085,-0.810778 0.680322,-1.68666 0.680322,-2.62375 0,-1.45867 -0.501099,-2.69715 -1.49939,-3.72373 -0.99805,-1.02682 -2.18361,-1.54011 -3.56084,-1.54011z"/>
   </g>
   <polygon id="_157101312" class="fil2" points="-0,0 298.233,0 298.233,142.633 -0,142.633 "/>
  </g>
 </g>
</svg>
